# xmcd
#
# Track frame offsets:
#	150
#	14102
#	28714
#	41164
#	57383
#	70820
#	93152
#	112724
#	127562
#	141474
#	154075
#	167099
#	182915
#	198950
#	212403
#	224830
#	237813
#	249313
#	267849
#	283485
#	308997
#
# Disc length: 4440
#
# Revision: 2
# Processed by: cddbd v1.5.1PL0 Copyright (c) Steve Scherf et al.
# Submitted via: audiograbber 1.81.02
# Normalized: r1:DSETVAR1
#
DISCID=37115615
DTITLE=Various Artist - Lady Jazz
DYEAR=2003
DGENRE=Jazz
TTITLE0=Norah Jones - Don't know why
TTITLE1=Lisa Ekdhal - Daybreak
TTITLE2=Dinah Washington - Mad about the boy
TTITLE3=Nina Simone - My baby just cares for me
TTITLE4=Marilyn Monroe - Wanna be loved by you
TTITLE5=Ella Fitzgerald - Summertime
TTITLE6=Diana Krall - I'm just a lucky so and so
TTITLE7=Peggy Lee - Fever
TTITLE8=Etta James - I just wanna make love to you
TTITLE9=Shirley Bassey - Goldfinger
TTITLE10=Julie London - Cry me a river
TTITLE11=Dusty Springfield - The look of love
TTITLE12=Dinah Shore - My funny Valentine
TTITLE13=Sarah Vaughan - Misty
TTITLE14=Aretha Franklin - Today I sing the blues
TTITLE15=Betty Swann - Tell it like it is
TTITLE16=Julie London - Fly me to the moon
TTITLE17=Cassandra Wilson - Time after time
TTITLE18=Sarah Vaughan - Stormy weather
TTITLE19=Billie Holiday - Trav'in Light
TTITLE20=Grotesque Cactus Data Shield
EXTD=YEAR: 2003
EXTT0=
EXTT1=
EXTT2=
EXTT3=
EXTT4=
EXTT5=
EXTT6=
EXTT7=
EXTT8=
EXTT9=
EXTT10=
EXTT11=
EXTT12=
EXTT13=
EXTT14=
EXTT15=
EXTT16=
EXTT17=
EXTT18=
EXTT19=
EXTT20=
PLAYORDER=
